<?xml version="1.0" encoding="UTF-8"?>
<svg width="69.939mm" height="49.635mm" version="1.1" viewBox="0 0 69.939 49.635" xmlns="http://www.w3.org/2000/svg">
 <path d="m0 0v37.186h5.2322v-28.499l11.938 14.732 11.887-14.732v22.254c-7.4808 3.161-12.914 7.3816-12.914 11.7 0 4.572 8.3235 6.9949 12.114 6.9949 5.5489 0 15.084-2.5403 22.938-6.6042 7.0729-3.6341 12.817-8.558 12.817-13.13 0-1.016-0.27367-1.9536-0.74259-2.8133 2.1492 0.23446 4.2984 0.54704 6.4477 1.016 0.35169 0.07815 0.27327-0.31272-0.15658-0.42995-2.2665-0.66431-4.5718-1.1722-6.9164-1.5239-2.5009-3.1652-8.0497-5.0406-12.661-6.2911-3.6341-0.97692-6.6434-1.6412-7.2295-2.1492-3.3606-3.048 11.254-11.919 21.649-11.919 1.6412 0 2.2665 0.66425 2.2665 1.5239 0 3.0089-6.4477 8.7142-10.746 11.371-0.42984 0.23446-0.19582 0.4687 0.11679 0.4687 2.5009 0 12.935-5.5489 12.935-8.9095 0-3.9858-3.0479-6.643-7.3463-6.643-6.7994 0-15.123 3.0092-19.773 6.6042-2.9308 2.2665-4.8066 5.0016-3.2045 6.9164 0.42985 0.508 1.0551 1.0164 2.1492 1.4071 2.0711 0.78154 5.2757 1.6019 8.5581 2.5006 4.4548 1.2114 9.2609 2.7352 11.098 4.8845-1.9148-0.19538-3.8296-0.31264-5.7444-0.31264-6.4953 0-13.87 1.3013-20.422 3.4081v-29.011h-4.5718l-12.548 15.392-12.599-15.392h-4.5718zm57.174 26.853c1.2895 0 2.6184-1.17e-4 3.947 0.078031 0.0782 0.27354 0.15606 0.58636 0.15606 0.8599 0 3.4388-6.1348 8.4797-14.185 12.505-7.4637 3.7514-16.569 6.565-23.641 6.565-1.2505 0-4.6111-0.58597-4.6111-2.4226 0-2.9285 4.1035-6.7423 10.218-10.07v2.8179h5.2322v-5.3315c6.8755-2.9063 15.15-5.0012 22.884-5.0012zm-24.204 2.5967c-0.02138 0.00736-0.04272 0.014844-0.064079 0.022221 0.021374-0.007371 0.042685-0.014867 0.064079-0.022221zm-1.2836 0.4563c-0.070612 0.025973-0.1405 0.052389-0.21084 0.078548 0.070382-0.026122 0.14019-0.052612 0.21084-0.078548zm-1.3245 0.50333c-0.065133 0.02567-0.12892 0.052202-0.19379 0.078031 0.06492-0.025817 0.1286-0.052377 0.19379-0.078031zm3.9243 1.4464c-0.38968 0.16475-0.77186 0.33356-1.1519 0.50333 0.38032-0.16973 0.76219-0.33858 1.1519-0.50333zm-1.3865 0.60616c-0.39772 0.17965-0.78781 0.36271-1.1741 0.54725 0.38657-0.18438 0.77621-0.36774 1.1741-0.54725zm-1.3369 0.62373c-0.38816 0.18688-0.76886 0.3762-1.1446 0.56741 0.37616-0.19114 0.75599-0.3806 1.1446-0.56741zm-1.295 0.64337c-0.40127 0.20567-0.79517 0.41386-1.1813 0.62373 0.38644-0.21002 0.77935-0.41796 1.1813-0.62373z" fill="#fff" stroke-width=".26458"/>
</svg>
